ISO-10303-21;
HEADER;
/* Generated by software containing ST-Developer
 * from STEP Tools, Inc. (www.steptools.com) 
 */
/* OPTION: using custom renumber hook */

FILE_DESCRIPTION(
/* description */ ('STEP AP242 Edition 2',
'CAx-IF Rec.Pracs.---Representation and Presentation of Product Manufa
cturing Information (PMI)---4.0---2014-10-13',
'CAx-IF Rec.Pracs.---3D Tessellated Geometry---0.4---2014-09-14','2;1',
'CAx-IF Rec.Pracs.---User Defined Attributes---1.5---2016-08-15'),
/* implementation_level */ '2;1');

FILE_NAME(
/* name */ 'Part Studio 1 - Part 1',
/* time_stamp */ '2026-09-16T16:30:54Z',
/* author */ (''),
/* organization */ (''),
/* preprocessor_version */ 'ST-DEVELOPER v20',
/* originating_system */ 'ONSHAPE BY PTC INC, 1.220',
/* authorisation */ '  ');

FILE_SCHEMA (('AP242_MANAGED_MODEL_BASED_3D_ENGINEERING_MIM_LF { 1 0 10303 442 3 1 4 }'));
ENDSEC;

DATA;
#10=SHAPE_REPRESENTATION_RELATIONSHIP('','',#369,#11);
#11=ADVANCED_BREP_SHAPE_REPRESENTATION('',(#367),#619);
#12=CIRCLE('',#373,0.0025);
#13=CIRCLE('',#374,0.0025);
#14=CIRCLE('',#377,0.0025);
#15=CIRCLE('',#378,0.0025);
#16=CIRCLE('',#381,0.0025);
#17=CIRCLE('',#382,0.0025);
#18=CIRCLE('',#385,0.0025);
#19=CIRCLE('',#386,0.0025);
#20=CIRCLE('',#393,0.0015);
#21=CIRCLE('',#394,0.0015);
#22=CIRCLE('',#395,0.0015);
#23=CIRCLE('',#396,0.0015);
#24=CIRCLE('',#399,0.0015);
#25=CIRCLE('',#402,0.0015);
#26=CIRCLE('',#405,0.0015);
#27=CIRCLE('',#408,0.0015);
#28=CYLINDRICAL_SURFACE('',#372,0.0025);
#29=CYLINDRICAL_SURFACE('',#376,0.0025);
#30=CYLINDRICAL_SURFACE('',#380,0.0025);
#31=CYLINDRICAL_SURFACE('',#384,0.0025);
#32=CYLINDRICAL_SURFACE('',#398,0.0015);
#33=CYLINDRICAL_SURFACE('',#401,0.0015);
#34=CYLINDRICAL_SURFACE('',#404,0.0015);
#35=CYLINDRICAL_SURFACE('',#407,0.0015);
#36=ORIENTED_EDGE('',*,*,#124,.F.);
#37=ORIENTED_EDGE('',*,*,#125,.F.);
#38=ORIENTED_EDGE('',*,*,#126,.T.);
#39=ORIENTED_EDGE('',*,*,#127,.T.);
#40=ORIENTED_EDGE('',*,*,#128,.T.);
#41=ORIENTED_EDGE('',*,*,#129,.F.);
#42=ORIENTED_EDGE('',*,*,#130,.F.);
#43=ORIENTED_EDGE('',*,*,#125,.T.);
#44=ORIENTED_EDGE('',*,*,#131,.T.);
#45=ORIENTED_EDGE('',*,*,#132,.F.);
#46=ORIENTED_EDGE('',*,*,#133,.F.);
#47=ORIENTED_EDGE('',*,*,#129,.T.);
#48=ORIENTED_EDGE('',*,*,#134,.T.);
#49=ORIENTED_EDGE('',*,*,#135,.F.);
#50=ORIENTED_EDGE('',*,*,#136,.F.);
#51=ORIENTED_EDGE('',*,*,#132,.T.);
#52=ORIENTED_EDGE('',*,*,#137,.T.);
#53=ORIENTED_EDGE('',*,*,#138,.F.);
#54=ORIENTED_EDGE('',*,*,#139,.F.);
#55=ORIENTED_EDGE('',*,*,#135,.T.);
#56=ORIENTED_EDGE('',*,*,#140,.T.);
#57=ORIENTED_EDGE('',*,*,#141,.F.);
#58=ORIENTED_EDGE('',*,*,#142,.F.);
#59=ORIENTED_EDGE('',*,*,#138,.T.);
#60=ORIENTED_EDGE('',*,*,#143,.F.);
#61=ORIENTED_EDGE('',*,*,#144,.F.);
#62=ORIENTED_EDGE('',*,*,#145,.T.);
#63=ORIENTED_EDGE('',*,*,#141,.T.);
#64=ORIENTED_EDGE('',*,*,#146,.T.);
#65=ORIENTED_EDGE('',*,*,#127,.F.);
#66=ORIENTED_EDGE('',*,*,#147,.F.);
#67=ORIENTED_EDGE('',*,*,#144,.T.);
#68=ORIENTED_EDGE('',*,*,#124,.T.);
#69=ORIENTED_EDGE('',*,*,#146,.F.);
#70=ORIENTED_EDGE('',*,*,#143,.T.);
#71=ORIENTED_EDGE('',*,*,#140,.F.);
#72=ORIENTED_EDGE('',*,*,#137,.F.);
#73=ORIENTED_EDGE('',*,*,#134,.F.);
#74=ORIENTED_EDGE('',*,*,#131,.F.);
#75=ORIENTED_EDGE('',*,*,#128,.F.);
#76=ORIENTED_EDGE('',*,*,#148,.F.);
#77=ORIENTED_EDGE('',*,*,#149,.F.);
#78=ORIENTED_EDGE('',*,*,#150,.T.);
#79=ORIENTED_EDGE('',*,*,#151,.T.);
#80=ORIENTED_EDGE('',*,*,#152,.T.);
#81=ORIENTED_EDGE('',*,*,#153,.F.);
#82=ORIENTED_EDGE('',*,*,#154,.F.);
#83=ORIENTED_EDGE('',*,*,#149,.T.);
#84=ORIENTED_EDGE('',*,*,#155,.T.);
#85=ORIENTED_EDGE('',*,*,#156,.F.);
#86=ORIENTED_EDGE('',*,*,#157,.F.);
#87=ORIENTED_EDGE('',*,*,#153,.T.);
#88=ORIENTED_EDGE('',*,*,#158,.F.);
#89=ORIENTED_EDGE('',*,*,#151,.F.);
#90=ORIENTED_EDGE('',*,*,#159,.T.);
#91=ORIENTED_EDGE('',*,*,#156,.T.);
#92=ORIENTED_EDGE('',*,*,#160,.F.);
#93=ORIENTED_EDGE('',*,*,#161,.F.);
#94=ORIENTED_EDGE('',*,*,#162,.F.);
#95=ORIENTED_EDGE('',*,*,#163,.F.);
#96=ORIENTED_EDGE('',*,*,#150,.F.);
#97=ORIENTED_EDGE('',*,*,#154,.T.);
#98=ORIENTED_EDGE('',*,*,#157,.T.);
#99=ORIENTED_EDGE('',*,*,#159,.F.);
#100=ORIENTED_EDGE('',*,*,#126,.F.);
#101=ORIENTED_EDGE('',*,*,#130,.T.);
#102=ORIENTED_EDGE('',*,*,#133,.T.);
#103=ORIENTED_EDGE('',*,*,#136,.T.);
#104=ORIENTED_EDGE('',*,*,#139,.T.);
#105=ORIENTED_EDGE('',*,*,#142,.T.);
#106=ORIENTED_EDGE('',*,*,#145,.F.);
#107=ORIENTED_EDGE('',*,*,#147,.T.);
#108=ORIENTED_EDGE('',*,*,#152,.F.);
#109=ORIENTED_EDGE('',*,*,#148,.T.);
#110=ORIENTED_EDGE('',*,*,#158,.T.);
#111=ORIENTED_EDGE('',*,*,#155,.F.);
#112=ORIENTED_EDGE('',*,*,#164,.F.);
#113=ORIENTED_EDGE('',*,*,#163,.T.);
#114=ORIENTED_EDGE('',*,*,#164,.T.);
#115=ORIENTED_EDGE('',*,*,#165,.F.);
#116=ORIENTED_EDGE('',*,*,#162,.T.);
#117=ORIENTED_EDGE('',*,*,#165,.T.);
#118=ORIENTED_EDGE('',*,*,#166,.F.);
#119=ORIENTED_EDGE('',*,*,#161,.T.);
#120=ORIENTED_EDGE('',*,*,#166,.T.);
#121=ORIENTED_EDGE('',*,*,#167,.F.);
#122=ORIENTED_EDGE('',*,*,#160,.T.);
#123=ORIENTED_EDGE('',*,*,#167,.T.);
#124=EDGE_CURVE('',#168,#169,#200,.T.);
#125=EDGE_CURVE('',#170,#168,#201,.F.);
#126=EDGE_CURVE('',#170,#171,#202,.T.);
#127=EDGE_CURVE('',#171,#169,#203,.T.);
#128=EDGE_CURVE('',#168,#172,#12,.T.);
#129=EDGE_CURVE('',#173,#172,#204,.T.);
#130=EDGE_CURVE('',#170,#173,#13,.T.);
#131=EDGE_CURVE('',#172,#174,#205,.T.);
#132=EDGE_CURVE('',#175,#174,#206,.F.);
#133=EDGE_CURVE('',#173,#175,#207,.T.);
#134=EDGE_CURVE('',#174,#176,#14,.T.);
#135=EDGE_CURVE('',#177,#176,#208,.T.);
#136=EDGE_CURVE('',#175,#177,#15,.T.);
#137=EDGE_CURVE('',#176,#178,#209,.T.);
#138=EDGE_CURVE('',#179,#178,#210,.F.);
#139=EDGE_CURVE('',#177,#179,#211,.T.);
#140=EDGE_CURVE('',#178,#180,#16,.T.);
#141=EDGE_CURVE('',#181,#180,#212,.T.);
#142=EDGE_CURVE('',#179,#181,#17,.T.);
#143=EDGE_CURVE('',#182,#180,#213,.T.);
#144=EDGE_CURVE('',#183,#182,#214,.F.);
#145=EDGE_CURVE('',#183,#181,#215,.T.);
#146=EDGE_CURVE('',#182,#169,#18,.T.);
#147=EDGE_CURVE('',#183,#171,#19,.T.);
#148=EDGE_CURVE('',#184,#185,#216,.T.);
#149=EDGE_CURVE('',#186,#184,#217,.T.);
#150=EDGE_CURVE('',#186,#187,#218,.T.);
#151=EDGE_CURVE('',#187,#185,#219,.T.);
#152=EDGE_CURVE('',#184,#188,#220,.T.);
#153=EDGE_CURVE('',#189,#188,#221,.T.);
#154=EDGE_CURVE('',#186,#189,#222,.T.);
#155=EDGE_CURVE('',#188,#190,#223,.T.);
#156=EDGE_CURVE('',#191,#190,#224,.T.);
#157=EDGE_CURVE('',#189,#191,#225,.T.);
#158=EDGE_CURVE('',#185,#190,#226,.T.);
#159=EDGE_CURVE('',#187,#191,#227,.T.);
#160=EDGE_CURVE('',#192,#192,#20,.T.);
#161=EDGE_CURVE('',#193,#193,#21,.T.);
#162=EDGE_CURVE('',#194,#194,#22,.T.);
#163=EDGE_CURVE('',#195,#195,#23,.T.);
#164=EDGE_CURVE('',#196,#196,#24,.T.);
#165=EDGE_CURVE('',#197,#197,#25,.T.);
#166=EDGE_CURVE('',#198,#198,#26,.T.);
#167=EDGE_CURVE('',#199,#199,#27,.T.);
#168=VERTEX_POINT('',#521);
#169=VERTEX_POINT('',#522);
#170=VERTEX_POINT('',#524);
#171=VERTEX_POINT('',#526);
#172=VERTEX_POINT('',#530);
#173=VERTEX_POINT('',#532);
#174=VERTEX_POINT('',#536);
#175=VERTEX_POINT('',#538);
#176=VERTEX_POINT('',#542);
#177=VERTEX_POINT('',#544);
#178=VERTEX_POINT('',#548);
#179=VERTEX_POINT('',#550);
#180=VERTEX_POINT('',#554);
#181=VERTEX_POINT('',#556);
#182=VERTEX_POINT('',#560);
#183=VERTEX_POINT('',#562);
#184=VERTEX_POINT('',#570);
#185=VERTEX_POINT('',#571);
#186=VERTEX_POINT('',#573);
#187=VERTEX_POINT('',#575);
#188=VERTEX_POINT('',#579);
#189=VERTEX_POINT('',#581);
#190=VERTEX_POINT('',#585);
#191=VERTEX_POINT('',#587);
#192=VERTEX_POINT('',#594);
#193=VERTEX_POINT('',#596);
#194=VERTEX_POINT('',#598);
#195=VERTEX_POINT('',#600);
#196=VERTEX_POINT('',#604);
#197=VERTEX_POINT('',#608);
#198=VERTEX_POINT('',#612);
#199=VERTEX_POINT('',#616);
#200=LINE('',#520,#228);
#201=LINE('',#523,#229);
#202=LINE('',#525,#230);
#203=LINE('',#527,#231);
#204=LINE('',#531,#232);
#205=LINE('',#535,#233);
#206=LINE('',#537,#234);
#207=LINE('',#539,#235);
#208=LINE('',#543,#236);
#209=LINE('',#547,#237);
#210=LINE('',#549,#238);
#211=LINE('',#551,#239);
#212=LINE('',#555,#240);
#213=LINE('',#559,#241);
#214=LINE('',#561,#242);
#215=LINE('',#563,#243);
#216=LINE('',#569,#244);
#217=LINE('',#572,#245);
#218=LINE('',#574,#246);
#219=LINE('',#576,#247);
#220=LINE('',#578,#248);
#221=LINE('',#580,#249);
#222=LINE('',#582,#250);
#223=LINE('',#584,#251);
#224=LINE('',#586,#252);
#225=LINE('',#588,#253);
#226=LINE('',#590,#254);
#227=LINE('',#591,#255);
#228=VECTOR('',#414,1.);
#229=VECTOR('',#415,1.);
#230=VECTOR('',#416,1.);
#231=VECTOR('',#417,1.);
#232=VECTOR('',#422,1.);
#233=VECTOR('',#427,1.);
#234=VECTOR('',#428,1.);
#235=VECTOR('',#429,1.);
#236=VECTOR('',#434,1.);
#237=VECTOR('',#439,1.);
#238=VECTOR('',#440,1.);
#239=VECTOR('',#441,1.);
#240=VECTOR('',#446,1.);
#241=VECTOR('',#451,1.);
#242=VECTOR('',#452,1.);
#243=VECTOR('',#453,1.);
#244=VECTOR('',#464,1.);
#245=VECTOR('',#465,1.);
#246=VECTOR('',#466,1.);
#247=VECTOR('',#467,1.);
#248=VECTOR('',#470,1.);
#249=VECTOR('',#471,1.);
#250=VECTOR('',#472,1.);
#251=VECTOR('',#475,1.);
#252=VECTOR('',#476,1.);
#253=VECTOR('',#477,1.);
#254=VECTOR('',#480,1.);
#255=VECTOR('',#481,1.);
#256=EDGE_LOOP('',(#36,#37,#38,#39));
#257=EDGE_LOOP('',(#40,#41,#42,#43));
#258=EDGE_LOOP('',(#44,#45,#46,#47));
#259=EDGE_LOOP('',(#48,#49,#50,#51));
#260=EDGE_LOOP('',(#52,#53,#54,#55));
#261=EDGE_LOOP('',(#56,#57,#58,#59));
#262=EDGE_LOOP('',(#60,#61,#62,#63));
#263=EDGE_LOOP('',(#64,#65,#66,#67));
#264=EDGE_LOOP('',(#68,#69,#70,#71,#72,#73,#74,#75));
#265=EDGE_LOOP('',(#76,#77,#78,#79));
#266=EDGE_LOOP('',(#80,#81,#82,#83));
#267=EDGE_LOOP('',(#84,#85,#86,#87));
#268=EDGE_LOOP('',(#88,#89,#90,#91));
#269=EDGE_LOOP('',(#92));
#270=EDGE_LOOP('',(#93));
#271=EDGE_LOOP('',(#94));
#272=EDGE_LOOP('',(#95));
#273=EDGE_LOOP('',(#96,#97,#98,#99));
#274=EDGE_LOOP('',(#100,#101,#102,#103,#104,#105,#106,#107));
#275=EDGE_LOOP('',(#108,#109,#110,#111));
#276=EDGE_LOOP('',(#112));
#277=EDGE_LOOP('',(#113));
#278=EDGE_LOOP('',(#114));
#279=EDGE_LOOP('',(#115));
#280=EDGE_LOOP('',(#116));
#281=EDGE_LOOP('',(#117));
#282=EDGE_LOOP('',(#118));
#283=EDGE_LOOP('',(#119));
#284=EDGE_LOOP('',(#120));
#285=EDGE_LOOP('',(#121));
#286=EDGE_LOOP('',(#122));
#287=EDGE_LOOP('',(#123));
#288=FACE_BOUND('',#256,.T.);
#289=FACE_BOUND('',#257,.T.);
#290=FACE_BOUND('',#258,.T.);
#291=FACE_BOUND('',#259,.T.);
#292=FACE_BOUND('',#260,.T.);
#293=FACE_BOUND('',#261,.T.);
#294=FACE_BOUND('',#262,.T.);
#295=FACE_BOUND('',#263,.T.);
#296=FACE_BOUND('',#264,.T.);
#297=FACE_BOUND('',#265,.T.);
#298=FACE_BOUND('',#266,.T.);
#299=FACE_BOUND('',#267,.T.);
#300=FACE_BOUND('',#268,.T.);
#301=FACE_BOUND('',#269,.T.);
#302=FACE_BOUND('',#270,.T.);
#303=FACE_BOUND('',#271,.T.);
#304=FACE_BOUND('',#272,.T.);
#305=FACE_BOUND('',#273,.T.);
#306=FACE_BOUND('',#274,.T.);
#307=FACE_BOUND('',#275,.T.);
#308=FACE_BOUND('',#276,.T.);
#309=FACE_BOUND('',#277,.T.);
#310=FACE_BOUND('',#278,.T.);
#311=FACE_BOUND('',#279,.T.);
#312=FACE_BOUND('',#280,.T.);
#313=FACE_BOUND('',#281,.T.);
#314=FACE_BOUND('',#282,.T.);
#315=FACE_BOUND('',#283,.T.);
#316=FACE_BOUND('',#284,.T.);
#317=FACE_BOUND('',#285,.T.);
#318=FACE_BOUND('',#286,.T.);
#319=FACE_BOUND('',#287,.T.);
#320=PLANE('',#371);
#321=PLANE('',#375);
#322=PLANE('',#379);
#323=PLANE('',#383);
#324=PLANE('',#387);
#325=PLANE('',#388);
#326=PLANE('',#389);
#327=PLANE('',#390);
#328=PLANE('',#391);
#329=PLANE('',#392);
#330=PLANE('',#397);
#331=PLANE('',#400);
#332=PLANE('',#403);
#333=PLANE('',#406);
#334=PLANE('',#409);
#335=ADVANCED_FACE('',(#288),#320,.T.);
#336=ADVANCED_FACE('',(#289),#28,.T.);
#337=ADVANCED_FACE('',(#290),#321,.F.);
#338=ADVANCED_FACE('',(#291),#29,.T.);
#339=ADVANCED_FACE('',(#292),#322,.F.);
#340=ADVANCED_FACE('',(#293),#30,.T.);
#341=ADVANCED_FACE('',(#294),#323,.T.);
#342=ADVANCED_FACE('',(#295),#31,.T.);
#343=ADVANCED_FACE('',(#296),#324,.F.);
#344=ADVANCED_FACE('',(#297),#325,.T.);
#345=ADVANCED_FACE('',(#298),#326,.F.);
#346=ADVANCED_FACE('',(#299),#327,.F.);
#347=ADVANCED_FACE('',(#300),#328,.T.);
#348=ADVANCED_FACE('',(#301,#302,#303,#304,#305,#306),#329,.T.);
#349=ADVANCED_FACE('',(#307),#330,.T.);
#350=ADVANCED_FACE('',(#308,#309),#32,.F.);
#351=ADVANCED_FACE('',(#310),#331,.T.);
#352=ADVANCED_FACE('',(#311,#312),#33,.F.);
#353=ADVANCED_FACE('',(#313),#332,.T.);
#354=ADVANCED_FACE('',(#314,#315),#34,.F.);
#355=ADVANCED_FACE('',(#316),#333,.T.);
#356=ADVANCED_FACE('',(#317,#318),#35,.F.);
#357=ADVANCED_FACE('',(#319),#334,.T.);
#358=CLOSED_SHELL('',(#335,#336,#337,#338,#339,#340,#341,#342,#343,#344,
#345,#346,#347,#348,#349,#350,#351,#352,#353,#354,#355,#356,#357));
#359=STYLED_ITEM('',(#360),#367);
#360=PRESENTATION_STYLE_ASSIGNMENT((#361));
#361=SURFACE_STYLE_USAGE(.BOTH.,#362);
#362=SURFACE_SIDE_STYLE('',(#363));
#363=SURFACE_STYLE_FILL_AREA(#364);
#364=FILL_AREA_STYLE('',(#365));
#365=FILL_AREA_STYLE_COLOUR('',#366);
#366=COLOUR_RGB('',0.615686274509804,0.811764705882353,0.929411764705882);
#367=MANIFOLD_SOLID_BREP('Part 1',#358);
#368=SHAPE_DEFINITION_REPRESENTATION(#624,#369);
#369=SHAPE_REPRESENTATION('Part 1',(#370),#619);
#370=AXIS2_PLACEMENT_3D('',#518,#410,#411);
#371=AXIS2_PLACEMENT_3D('',#519,#412,#413);
#372=AXIS2_PLACEMENT_3D('',#528,#418,#419);
#373=AXIS2_PLACEMENT_3D('',#529,#420,#421);
#374=AXIS2_PLACEMENT_3D('',#533,#423,#424);
#375=AXIS2_PLACEMENT_3D('',#534,#425,#426);
#376=AXIS2_PLACEMENT_3D('',#540,#430,#431);
#377=AXIS2_PLACEMENT_3D('',#541,#432,#433);
#378=AXIS2_PLACEMENT_3D('',#545,#435,#436);
#379=AXIS2_PLACEMENT_3D('',#546,#437,#438);
#380=AXIS2_PLACEMENT_3D('',#552,#442,#443);
#381=AXIS2_PLACEMENT_3D('',#553,#444,#445);
#382=AXIS2_PLACEMENT_3D('',#557,#447,#448);
#383=AXIS2_PLACEMENT_3D('',#558,#449,#450);
#384=AXIS2_PLACEMENT_3D('',#564,#454,#455);
#385=AXIS2_PLACEMENT_3D('',#565,#456,#457);
#386=AXIS2_PLACEMENT_3D('',#566,#458,#459);
#387=AXIS2_PLACEMENT_3D('',#567,#460,#461);
#388=AXIS2_PLACEMENT_3D('',#568,#462,#463);
#389=AXIS2_PLACEMENT_3D('',#577,#468,#469);
#390=AXIS2_PLACEMENT_3D('',#583,#473,#474);
#391=AXIS2_PLACEMENT_3D('',#589,#478,#479);
#392=AXIS2_PLACEMENT_3D('',#592,#482,#483);
#393=AXIS2_PLACEMENT_3D('',#593,#484,#485);
#394=AXIS2_PLACEMENT_3D('',#595,#486,#487);
#395=AXIS2_PLACEMENT_3D('',#597,#488,#489);
#396=AXIS2_PLACEMENT_3D('',#599,#490,#491);
#397=AXIS2_PLACEMENT_3D('',#601,#492,#493);
#398=AXIS2_PLACEMENT_3D('',#602,#494,#495);
#399=AXIS2_PLACEMENT_3D('',#603,#496,#497);
#400=AXIS2_PLACEMENT_3D('',#605,#498,#499);
#401=AXIS2_PLACEMENT_3D('',#606,#500,#501);
#402=AXIS2_PLACEMENT_3D('',#607,#502,#503);
#403=AXIS2_PLACEMENT_3D('',#609,#504,#505);
#404=AXIS2_PLACEMENT_3D('',#610,#506,#507);
#405=AXIS2_PLACEMENT_3D('',#611,#508,#509);
#406=AXIS2_PLACEMENT_3D('',#613,#510,#511);
#407=AXIS2_PLACEMENT_3D('',#614,#512,#513);
#408=AXIS2_PLACEMENT_3D('',#615,#514,#515);
#409=AXIS2_PLACEMENT_3D('',#617,#516,#517);
#410=DIRECTION('',(0.,0.,1.));
#411=DIRECTION('',(1.,0.,0.));
#412=DIRECTION('',(1.42687516017011E-16,-1.,0.));
#413=DIRECTION('',(1.,1.42687516017011E-16,0.));
#414=DIRECTION('',(-1.,-1.42687516017011E-16,0.));
#415=DIRECTION('',(0.,0.,1.));
#416=DIRECTION('',(-1.,-1.42687516017011E-16,0.));
#417=DIRECTION('',(0.,0.,-1.));
#418=DIRECTION('',(0.,0.,1.));
#419=DIRECTION('',(1.,0.,0.));
#420=DIRECTION('',(0.,0.,1.));
#421=DIRECTION('',(1.,0.,0.));
#422=DIRECTION('',(0.,0.,-1.));
#423=DIRECTION('',(0.,0.,1.));
#424=DIRECTION('',(1.,0.,0.));
#425=DIRECTION('',(-1.,0.,0.));
#426=DIRECTION('',(0.,0.,1.));
#427=DIRECTION('',(0.,1.,0.));
#428=DIRECTION('',(0.,0.,1.));
#429=DIRECTION('',(0.,1.,0.));
#430=DIRECTION('',(0.,0.,-1.));
#431=DIRECTION('',(-1.,0.,0.));
#432=DIRECTION('',(0.,0.,1.));
#433=DIRECTION('',(1.,0.,0.));
#434=DIRECTION('',(0.,0.,-1.));
#435=DIRECTION('',(0.,0.,1.));
#436=DIRECTION('',(1.,0.,0.));
#437=DIRECTION('',(1.14150012813608E-16,-1.,0.));
#438=DIRECTION('',(1.,1.14150012813608E-16,0.));
#439=DIRECTION('',(-1.,-1.14150012813608E-16,0.));
#440=DIRECTION('',(0.,0.,1.));
#441=DIRECTION('',(-1.,-1.14150012813608E-16,0.));
#442=DIRECTION('',(0.,0.,1.));
#443=DIRECTION('',(1.,0.,0.));
#444=DIRECTION('',(0.,0.,1.));
#445=DIRECTION('',(1.,0.,0.));
#446=DIRECTION('',(0.,0.,-1.));
#447=DIRECTION('',(0.,0.,1.));
#448=DIRECTION('',(1.,0.,0.));
#449=DIRECTION('',(-1.,0.,0.));
#450=DIRECTION('',(0.,0.,1.));
#451=DIRECTION('',(0.,1.,0.));
#452=DIRECTION('',(0.,0.,1.));
#453=DIRECTION('',(0.,1.,0.));
#454=DIRECTION('',(0.,0.,-1.));
#455=DIRECTION('',(-1.,0.,0.));
#456=DIRECTION('',(0.,0.,1.));
#457=DIRECTION('',(1.,0.,0.));
#458=DIRECTION('',(0.,0.,1.));
#459=DIRECTION('',(1.,0.,0.));
#460=DIRECTION('',(0.,0.,1.));
#461=DIRECTION('',(1.,0.,0.));
#462=DIRECTION('',(-1.,0.,0.));
#463=DIRECTION('',(0.,0.,1.));
#464=DIRECTION('',(0.,1.,0.));
#465=DIRECTION('',(0.,0.,-1.));
#466=DIRECTION('',(0.,1.,0.));
#467=DIRECTION('',(0.,0.,-1.));
#468=DIRECTION('',(1.19636101791504E-16,-1.,0.));
#469=DIRECTION('',(1.,1.19636101791504E-16,0.));
#470=DIRECTION('',(-1.,-1.19636101791504E-16,0.));
#471=DIRECTION('',(0.,0.,-1.));
#472=DIRECTION('',(-1.,-1.19636101791504E-16,0.));
#473=DIRECTION('',(-1.,0.,0.));
#474=DIRECTION('',(0.,0.,1.));
#475=DIRECTION('',(0.,1.,0.));
#476=DIRECTION('',(0.,0.,-1.));
#477=DIRECTION('',(0.,1.,0.));
#478=DIRECTION('',(1.19636101791504E-16,-1.,0.));
#479=DIRECTION('',(1.,1.19636101791504E-16,0.));
#480=DIRECTION('',(-1.,-1.19636101791504E-16,0.));
#481=DIRECTION('',(-1.,-1.19636101791504E-16,0.));
#482=DIRECTION('',(0.,0.,1.));
#483=DIRECTION('',(1.,0.,0.));
#484=DIRECTION('',(0.,0.,1.));
#485=DIRECTION('',(1.,0.,0.));
#486=DIRECTION('',(0.,0.,1.));
#487=DIRECTION('',(1.,0.,0.));
#488=DIRECTION('',(0.,0.,1.));
#489=DIRECTION('',(1.,0.,0.));
#490=DIRECTION('',(0.,0.,1.));
#491=DIRECTION('',(1.,0.,0.));
#492=DIRECTION('',(0.,0.,1.));
#493=DIRECTION('',(1.,0.,0.));
#494=DIRECTION('',(0.,0.,1.));
#495=DIRECTION('',(1.,0.,0.));
#496=DIRECTION('',(0.,0.,1.));
#497=DIRECTION('',(1.,0.,0.));
#498=DIRECTION('',(0.,0.,1.));
#499=DIRECTION('',(1.,0.,0.));
#500=DIRECTION('',(0.,0.,1.));
#501=DIRECTION('',(1.,0.,0.));
#502=DIRECTION('',(0.,0.,1.));
#503=DIRECTION('',(1.,0.,0.));
#504=DIRECTION('',(0.,0.,1.));
#505=DIRECTION('',(1.,0.,0.));
#506=DIRECTION('',(0.,0.,1.));
#507=DIRECTION('',(1.,0.,0.));
#508=DIRECTION('',(0.,0.,1.));
#509=DIRECTION('',(1.,0.,0.));
#510=DIRECTION('',(0.,0.,1.));
#511=DIRECTION('',(1.,0.,0.));
#512=DIRECTION('',(0.,0.,1.));
#513=DIRECTION('',(1.,0.,0.));
#514=DIRECTION('',(0.,0.,1.));
#515=DIRECTION('',(1.,0.,0.));
#516=DIRECTION('',(0.,0.,1.));
#517=DIRECTION('',(1.,0.,0.));
#518=CARTESIAN_POINT('',(0.,0.,0.));
#519=CARTESIAN_POINT('',(0.,-0.046575,0.008));
#520=CARTESIAN_POINT('',(0.,-0.046575,0.));
#521=CARTESIAN_POINT('',(0.120075,-0.046575,0.));
#522=CARTESIAN_POINT('',(-0.120075,-0.046575,0.));
#523=CARTESIAN_POINT('',(0.120075,-0.046575,0.008));
#524=CARTESIAN_POINT('',(0.120075,-0.046575,0.028));
#525=CARTESIAN_POINT('',(0.,-0.046575,0.028));
#526=CARTESIAN_POINT('',(-0.120075,-0.046575,0.028));
#527=CARTESIAN_POINT('',(-0.120075,-0.046575,0.008));
#528=CARTESIAN_POINT('',(0.120075,-0.044075,0.008));
#529=CARTESIAN_POINT('',(0.120075,-0.044075,0.));
#530=CARTESIAN_POINT('',(0.122575,-0.044075,0.));
#531=CARTESIAN_POINT('',(0.122575,-0.044075,0.008));
#532=CARTESIAN_POINT('',(0.122575,-0.044075,0.028));
#533=CARTESIAN_POINT('',(0.120075,-0.044075,0.028));
#534=CARTESIAN_POINT('',(0.122575,2.08166817117217E-17,0.008));
#535=CARTESIAN_POINT('',(0.122575,2.08166817117217E-17,0.));
#536=CARTESIAN_POINT('',(0.122575,0.044075,0.));
#537=CARTESIAN_POINT('',(0.122575,0.044075,0.008));
#538=CARTESIAN_POINT('',(0.122575,0.044075,0.028));
#539=CARTESIAN_POINT('',(0.122575,2.08166817117217E-17,0.028));
#540=CARTESIAN_POINT('',(0.120075,0.044075,0.008));
#541=CARTESIAN_POINT('',(0.120075,0.044075,0.));
#542=CARTESIAN_POINT('',(0.120075,0.046575,0.));
#543=CARTESIAN_POINT('',(0.120075,0.046575,0.008));
#544=CARTESIAN_POINT('',(0.120075,0.046575,0.028));
#545=CARTESIAN_POINT('',(0.120075,0.044075,0.028));
#546=CARTESIAN_POINT('',(0.,0.046575,0.008));
#547=CARTESIAN_POINT('',(0.,0.046575,0.));
#548=CARTESIAN_POINT('',(-0.120075,0.046575,0.));
#549=CARTESIAN_POINT('',(-0.120075,0.046575,0.008));
#550=CARTESIAN_POINT('',(-0.120075,0.046575,0.028));
#551=CARTESIAN_POINT('',(0.,0.046575,0.028));
#552=CARTESIAN_POINT('',(-0.120075,0.044075,0.008));
#553=CARTESIAN_POINT('',(-0.120075,0.044075,0.));
#554=CARTESIAN_POINT('',(-0.122575,0.044075,0.));
#555=CARTESIAN_POINT('',(-0.122575,0.044075,0.008));
#556=CARTESIAN_POINT('',(-0.122575,0.044075,0.028));
#557=CARTESIAN_POINT('',(-0.120075,0.044075,0.028));
#558=CARTESIAN_POINT('',(-0.122575,-1.04083408558608E-17,0.008));
#559=CARTESIAN_POINT('',(-0.122575,-1.04083408558608E-17,0.));
#560=CARTESIAN_POINT('',(-0.122575,-0.044075,0.));
#561=CARTESIAN_POINT('',(-0.122575,-0.044075,0.008));
#562=CARTESIAN_POINT('',(-0.122575,-0.044075,0.028));
#563=CARTESIAN_POINT('',(-0.122575,-1.04083408558608E-17,0.028));
#564=CARTESIAN_POINT('',(-0.120075,-0.044075,0.008));
#565=CARTESIAN_POINT('',(-0.120075,-0.044075,0.));
#566=CARTESIAN_POINT('',(-0.120075,-0.044075,0.028));
#567=CARTESIAN_POINT('',(0.,0.,0.));
#568=CARTESIAN_POINT('',(0.116,1.38777878078145E-17,0.028));
#569=CARTESIAN_POINT('',(0.116,1.38777878078145E-17,0.008));
#570=CARTESIAN_POINT('',(0.116,-0.04,0.008));
#571=CARTESIAN_POINT('',(0.116,0.04,0.008));
#572=CARTESIAN_POINT('',(0.116,-0.04,0.028));
#573=CARTESIAN_POINT('',(0.116,-0.04,0.028));
#574=CARTESIAN_POINT('',(0.116,1.38777878078145E-17,0.028));
#575=CARTESIAN_POINT('',(0.116,0.04,0.028));
#576=CARTESIAN_POINT('',(0.116,0.04,0.028));
#577=CARTESIAN_POINT('',(0.,-0.04,0.028));
#578=CARTESIAN_POINT('',(0.,-0.04,0.008));
#579=CARTESIAN_POINT('',(-0.116,-0.04,0.008));
#580=CARTESIAN_POINT('',(-0.116,-0.04,0.028));
#581=CARTESIAN_POINT('',(-0.116,-0.04,0.028));
#582=CARTESIAN_POINT('',(0.,-0.04,0.028));
#583=CARTESIAN_POINT('',(-0.116,-1.38777878078145E-17,0.028));
#584=CARTESIAN_POINT('',(-0.116,-1.38777878078145E-17,0.008));
#585=CARTESIAN_POINT('',(-0.116,0.04,0.008));
#586=CARTESIAN_POINT('',(-0.116,0.04,0.028));
#587=CARTESIAN_POINT('',(-0.116,0.04,0.028));
#588=CARTESIAN_POINT('',(-0.116,-1.38777878078145E-17,0.028));
#589=CARTESIAN_POINT('',(0.,0.04,0.028));
#590=CARTESIAN_POINT('',(0.,0.04,0.008));
#591=CARTESIAN_POINT('',(0.,0.04,0.028));
#592=CARTESIAN_POINT('',(0.,0.,0.028));
#593=CARTESIAN_POINT('',(0.117575,-0.041575,0.028));
#594=CARTESIAN_POINT('',(0.119075,-0.041575,0.028));
#595=CARTESIAN_POINT('',(0.117575,0.041575,0.028));
#596=CARTESIAN_POINT('',(0.119075,0.041575,0.028));
#597=CARTESIAN_POINT('',(-0.117575,0.041575,0.028));
#598=CARTESIAN_POINT('',(-0.116075,0.041575,0.028));
#599=CARTESIAN_POINT('',(-0.117575,-0.041575,0.028));
#600=CARTESIAN_POINT('',(-0.116075,-0.041575,0.028));
#601=CARTESIAN_POINT('',(0.,0.,0.008));
#602=CARTESIAN_POINT('',(-0.117575,-0.041575,0.021));
#603=CARTESIAN_POINT('',(-0.117575,-0.041575,0.021));
#604=CARTESIAN_POINT('',(-0.116075,-0.041575,0.021));
#605=CARTESIAN_POINT('',(0.,6.93889390390723E-18,0.021));
#606=CARTESIAN_POINT('',(-0.117575,0.041575,0.021));
#607=CARTESIAN_POINT('',(-0.117575,0.041575,0.021));
#608=CARTESIAN_POINT('',(-0.116075,0.041575,0.021));
#609=CARTESIAN_POINT('',(0.,6.93889390390723E-18,0.021));
#610=CARTESIAN_POINT('',(0.117575,0.041575,0.021));
#611=CARTESIAN_POINT('',(0.117575,0.041575,0.021));
#612=CARTESIAN_POINT('',(0.119075,0.041575,0.021));
#613=CARTESIAN_POINT('',(0.,6.93889390390723E-18,0.021));
#614=CARTESIAN_POINT('',(0.117575,-0.041575,0.021));
#615=CARTESIAN_POINT('',(0.117575,-0.041575,0.021));
#616=CARTESIAN_POINT('',(0.119075,-0.041575,0.021));
#617=CARTESIAN_POINT('',(0.,6.93889390390723E-18,0.021));
#618=MECHANICAL_DESIGN_GEOMETRIC_PRESENTATION_REPRESENTATION('',(#359),
#619);
#619=(
GEOMETRIC_REPRESENTATION_CONTEXT(3)
GLOBAL_UNCERTAINTY_ASSIGNED_CONTEXT((#620))
GLOBAL_UNIT_ASSIGNED_CONTEXT((#623,#622,#621))
REPRESENTATION_CONTEXT('Part 1','TOP_LEVEL_ASSEMBLY_PART')
);
#620=UNCERTAINTY_MEASURE_WITH_UNIT(LENGTH_MEASURE(1.E-8),#623,
'DISTANCE_ACCURACY_VALUE','Maximum Tolerance applied to model');
#621=(
NAMED_UNIT(*)
SI_UNIT($,.STERADIAN.)
SOLID_ANGLE_UNIT()
);
#622=(
NAMED_UNIT(*)
PLANE_ANGLE_UNIT()
SI_UNIT($,.RADIAN.)
);
#623=(
LENGTH_UNIT()
NAMED_UNIT(*)
SI_UNIT($,.METRE.)
);
#624=PRODUCT_DEFINITION_SHAPE('','',#625);
#625=PRODUCT_DEFINITION('','',#627,#626);
#626=PRODUCT_DEFINITION_CONTEXT('',#633,'design');
#627=PRODUCT_DEFINITION_FORMATION_WITH_SPECIFIED_SOURCE('','',#629,
 .NOT_KNOWN.);
#628=PRODUCT_RELATED_PRODUCT_CATEGORY('','',(#629));
#629=PRODUCT('Part 1','Part 1','Part 1',(#631));
#630=PRODUCT_CATEGORY('','');
#631=PRODUCT_CONTEXT('',#633,'mechanical');
#632=APPLICATION_PROTOCOL_DEFINITION('international standard',
'ap242_managed_model_based_3d_engineering',2020,#633);
#633=APPLICATION_CONTEXT('managed model based 3d engineering');
ENDSEC;
END-ISO-10303-21;
